#!OML:ASF I:\Actors\actors\Patient Classification 2\Patient 1\Session 1\actor1.ASF
:FULLY-SPECIFIED
:DEGREES
148
root -1.61539 18.766 4.92239 5.9364 1.3916 -2.42472
lowerback 16.4428 -0.235186 1.80017
upperback 9.59611 -0.0528464 0.8138
thorax 0.993164 0.0250264 -0.15345
lowerneck -22.7823 -1.52944 -2.69757
upperneck 12.8561 -2.02819 4.37153
head 7.74662 -0.650602 1.63559
rclavicle -1.80149e-016 -6.41081e-015
rhumerus -53.9031 68.9993 -139.599
rradius 123.487
rwrist -27.7293
rhand 5.2232 -25.9533
rfingers 7.12502
rthumb 30.5828 -53.4334
lclavicle -1.80149e-016 -6.41081e-015
lhumerus -29.2653 -65.4323 123.285
lradius 96.9363
lwrist 56.3905
lhand 42.2489 3.77167
lfingers 7.12502
lthumb 64.2312 12.1787
rfemur -2.80996 2.18947 20.0608
rtibia 4.07223
rfoot -18.0753 -14.9861
rtoes -7.47302
lfemur -15.0166 -5.49037 -7.71615
ltibia 22.3104
lfoot -15.7041 9.96755
ltoes -57.6673
149
root -1.65239 18.7624 4.91877 5.99367 1.36069 -2.38105
lowerback 16.6225 -0.222467 1.74151
upperback 9.64174 -0.0404166 0.823968
thorax 0.948916 0.0283992 -0.111334
lowerneck -22.6712 -1.47068 -2.62124
upperneck 12.6895 -1.94498 4.24082
head 7.667 -0.623137 1.58934
rclavicle -5.4856e-015 -6.41314e-015
rhumerus -53.3091 69.7566 -139.507
rradius 123.777
rwrist -27.4096
rhand 4.87461 -25.752
rfingers 7.12502
rthumb 30.2504 -53.2937
lclavicle -5.4856e-015 -6.41314e-015
lhumerus -28.6945 -65.095 122.716
lradius 97.39
lwrist 55.9718
lhand 42.9197 4.06692
lfingers 7.12502
lthumb 64.7668 11.6273
rfemur -3.69767 2.23474 20.1103
rtibia 5.67976
rfoot -18.7087 -14.5697
rtoes -7.24105
lfemur -15.0619 -5.41422 -7.62939
ltibia 22.266
lfoot -15.6535 9.94398
ltoes -57.7055
150
root -1.68909 18.7595 4.91661 6.07047 1.34991 -2.38054
lowerback 16.7472 -0.182222 1.75416
upperback 9.68528 0.016335 0.84881
thorax 0.931972 0.0566063 -0.100937
lowerneck -22.5119 -1.47552 -2.66503
upperneck 12.4976 -1.94823 4.31561
head 7.57842 -0.622513 1.62
rclavicle -3.85145e-016 -8.28684e-015
rhumerus -53.2006 70.0661 -139.485
rradius 123.958
rwrist -26.8892
rhand 4.50586 -24.9656
rfingers 7.12502
rthumb 29.8985 -52.5712
lclavicle -3.85145e-016 -8.28684e-015
lhumerus -28.3233 -64.8069 122.331
lradius 97.9137
lwrist 55.4425
lhand 43.7305 4.72884
lfingers 7.12502
lthumb 65.4059 11.2151
rfemur -4.34509 2.2637 20.2195
rtibia 6.77697
rfoot -19.1101 -14.3355
rtoes -7.40528
lfemur -15.1344 -5.35715 -7.49737
ltibia 22.2299
lfoot -15.5395 9.97959
ltoes -57.8899
151
root -1.72184 18.7574 4.91633 6.10355 1.38365 -2.32735
lowerback 16.9213 -0.174612 1.83183
upperback 9.74264 0.0402822 0.820939
thorax 0.904359 0.072724 -0.177494
lowerneck -22.5506 -1.53891 -2.79077
upperneck 12.5116 -2.0318 4.5198
head 7.59667 -0.647274 1.69798
rclavicle -1.51573e-015 -3.08116e-015
rhumerus -52.8359 70.3351 -139.361
rradius 123.986
rwrist -26.5833
rhand 4.21859 -24.3059
rfingers 7.12502
rthumb 29.6244 -51.9605
lclavicle -1.51573e-015 -3.08116e-015
lhumerus -28.0569 -64.5306 121.996
lradius 98.5017
lwrist 54.6499
lhand 41.9487 0.83604
lfingers 7.12502
lthumb 63.9895 9.61029
rfemur -4.77023 2.23883 20.2579
rtibia 7.54418
rfoot -19.3638 -14.2079
rtoes -7.83204
lfemur -15.1657 -5.32921 -7.44284
ltibia 22.2076
lfoot -15.4384 9.97312
ltoes -58.0434
152
root -1.75175 18.7556 4.91604 6.14424 1.48103 -2.26761
lowerback 17.1179 -0.206083 1.92986
upperback 9.76758 0.0182085 0.8142
thorax 0.829849 0.0657308 -0.236229
lowerneck -22.6001 -1.58463 -2.89973
upperneck 12.5631 -2.0806 4.6295
head 7.62647 -0.663824 1.74633
rclavicle 2.43511e-015 7.0817e-015
rhumerus -52.6607 70.5196 -139.376
rradius 123.994
rwrist -26.443
rhand 4.10858 -23.8529
rfingers 7.12502
rthumb 29.5194 -51.5261
lclavicle 2.43511e-015 7.0817e-015
lhumerus -27.9987 -64.2051 121.86
lradius 99.056
lwrist 53.637
lhand 42.763 1.00215
lfingers 7.12502
lthumb 64.6422 8.76366
rfemur -5.08341 2.14751 20.2839
rtibia 8.08076
rfoot -19.6069 -14.0787
rtoes -7.80556
lfemur -15.23 -5.40834 -7.39102
ltibia 22.1943
lfoot -15.3688 10.0036
ltoes -58.1566
153
root -1.78342 18.7536 4.91744 6.27051 1.60686 -2.25994
lowerback 17.182 -0.218643 2.03024
upperback 9.77382 0.0188227 0.851675
thorax 0.804105 0.0691802 -0.253494
lowerneck -22.5801 -1.60599 -2.90545
upperneck 12.5388 -2.09632 4.56918
head 7.61487 -0.678219 1.72485
rclavicle -2.21148e-015 2.78299e-015
rhumerus -52.5953 70.7415 -139.248
rradius 123.99
rwrist -26.3683
rhand 3.83454 -23.4085
rfingers 7.12502
rthumb 29.2577 -51.1277
lclavicle -2.21148e-015 2.78299e-015
lhumerus -28.0839 -64.0137 121.878
lradius 99.5469
lwrist 52.5535
lhand 46.0924 5.00884
lfingers 7.12502
lthumb 67.2094 8.01607
rfemur -5.38248 2.03524 20.3865
rtibia 8.42476
rfoot -19.8353 -13.9131
rtoes -7.06499
lfemur -15.4139 -5.49755 -7.26103
ltibia 22.2056
lfoot -15.2917 10.0592
ltoes -58.2384
154
root -1.81465 18.7538 4.92169 6.38477 1.71969 -2.21214
lowerback 17.2034 -0.211303 2.07412
upperback 9.8064 0.0356984 0.881369
thorax 0.828722 0.0792506 -0.249627
lowerneck -22.6383 -1.64802 -2.92029
upperneck 12.5486 -2.13419 4.49533
head 7.62817 -0.703786 1.69762
rclavicle -1.39149e-015 3.03147e-015
rhumerus -52.6045 71.135 -139.015
rradius 123.944
rwrist -26.4127
rhand 3.32008 -23.1269
rfingers 7.12502
rthumb 28.7664 -50.9306
lclavicle -1.39149e-015 3.03147e-015
lhumerus -28.1344 -63.9772 121.884
lradius 100.009
lwrist 51.3866
lhand 44.3262 2.44406
lfingers 7.12502
lthumb 65.8694 8.10366
rfemur -5.57776 1.93027 20.4473
rtibia 8.60904
rfoot -19.9186 -13.8449
rtoes -6.83792
lfemur -15.5947 -5.45911 -7.19037
ltibia 22.2523
lfoot -15.2051 9.9712
ltoes -58.248
155
root -1.84248 18.7565 4.92533 6.45638 1.83163 -2.16879
lowerback 17.3061 -0.235022 2.17065
upperback 9.84589 0.02163 0.893497
thorax 0.818681 0.076262 -0.288897
lowerneck -22.7098 -1.64876 -3.03069
upperneck 12.5129 -2.10666 4.54338
head 7.62851 -0.690738 1.73495
rclavicle -5.96354e-015 -1.68967e-015
rhumerus -52.7139 71.4283 -138.983
rradius 123.971
rwrist -26.6625
rhand 2.97729 -23.2967
rfingers 7.12502
rthumb 28.4388 -51.1556
lclavicle -5.96354e-015 -1.68967e-015
lhumerus -27.9306 -63.9738 121.647
lradius 100.372
lwrist 50.1609
lhand 46.1719 4.98224
lfingers 7.12502
lthumb 67.2685 7.86255
rfemur -5.68683 1.82425 20.4986
rtibia 8.70326
rfoot -19.9295 -13.8651
rtoes -7.10486
lfemur -15.7406 -5.33651 -7.13608
ltibia 22.3233
lfoot -15.0735 9.77309
ltoes -58.2616
156
root -1.86795 18.7589 4.92851 6.542 1.98167 -2.14797
lowerback 17.4156 -0.274968 2.28643
upperback 9.84324 -0.0091106 0.922909
thorax 0.759564 0.0646252 -0.3182
lowerneck -22.5478 -1.56859 -2.97731
upperneck 12.3433 -1.98577 4.39424
head 7.53797 -0.64879 1.69107
rclavicle 4.02539e-015 7.95139e-016
rhumerus -52.996 71.4219 -139.177
rradius 124.067
rwrist -27.0602
rhand 2.86722 -23.7125
rfingers 7.12502
rthumb 28.3337 -51.5889
lclavicle 4.02539e-015 7.95139e-016
lhumerus -27.6867 -63.9383 121.369
lradius 100.664
lwrist 48.9341
lhand 46.6607 5.14012
lfingers 7.12502
lthumb 67.6288 7.22485
rfemur -5.76897 1.68197 20.5721
rtibia 8.71715
rfoot -19.9321 -13.8914
rtoes -7.26297
lfemur -15.9216 -5.27275 -7.05816
ltibia 22.4139
lfoot -14.8944 9.62981
ltoes -58.3189
157
root -1.89132 18.7612 4.93271 6.63408 2.17297 -2.13116
lowerback 17.5151 -0.337022 2.433
upperback 9.79901 -0.0632662 0.935544
thorax 0.660403 0.0424001 -0.378652
lowerneck -22.3637 -1.5002 -2.70002
upperneck 12.2224 -1.9097 4.00792
head 7.45714 -0.640693 1.52642
rclavicle 3.57812e-015 3.57812e-015
rhumerus -53.4965 71.2587 -139.582
rradius 124.113
rwrist -27.6526
rhand 2.86981 -24.0099
rfingers 7.12502
rthumb 28.3361 -51.8858
lclavicle 3.57812e-015 3.57812e-015
lhumerus -27.8052 -63.8669 121.332
lradius 101.017
lwrist 47.7648
lhand 43.6878 1.16814
lfingers 7.12502
lthumb 65.3725 7.71232
rfemur -5.8191 1.49874 20.6552
rtibia 8.67065
rfoot -19.9103 -13.9162
rtoes -7.31376
lfemur -16.1442 -5.28777 -6.9718
ltibia 22.5258
lfoot -14.7315 9.53974
ltoes -58.3239
